G04 Title: (unknown), solder mask solder side *
G04 Creator: pcb 1.7.1.ALPHA *
G04 CreationDate: Thu Aug 22 10:44:03 2002 UTC *
G04 For: sgust *
G04 Format: Gerber/RS-274X *
G04 PCB-Dimensions: 2700 4200 *
G04 PCB-Coordinate-Origin: lower left *
%FSLAX23Y23*%
%MOIN*%
%IPNEG*%
%LPD*%
%ADD11C,0.010*%
%ADD12C,0.020*%
%ADD13C,0.100*%
%ADD14C,0.040*%
%ADD15R,0.060X0.060*%
%ADD16R,0.110X0.110*%
%ADD17C,0.060*%
%ADD18C,0.110*%
%ADD19C,0.008*%
%ADD20R,0.090X0.090*%
%ADD21C,0.090*%
%ADD22C,0.250*%
%ADD23C,0.150*%
%ADD24R,0.070X0.070*%
%ADD25R,0.100X0.100*%
%ADD26C,0.070*%
%ADD27C,0.130*%
%ADD28C,0.030*%
%ADD29C,0.012*%
%ADD30C,0.016*%
G01X0Y0D02*
G54D27*X215Y480D02*Y170D01*
X370Y480D02*Y170D01*
X525Y480D02*Y170D01*
X680Y480D02*Y170D01*
X835Y480D02*Y170D01*
X990Y480D02*Y170D01*
X1145Y480D02*Y170D01*
X1300Y480D02*Y170D01*
X1455Y480D02*Y170D01*
X1610Y480D02*Y170D01*
X1765Y480D02*Y170D01*
X1920Y480D02*Y170D01*
X2075Y480D02*Y170D01*
X2230Y480D02*Y170D01*
X2385Y480D02*Y170D01*
G54D16*X2250Y2400D03*
G54D18*Y2500D03*
G54D20*Y2700D03*
G54D21*Y2800D03*
G54D20*X1100Y2750D03*
G54D21*Y2950D03*
G54D20*X1000Y3500D03*
G54D21*X900D03*
X800D03*
X700D03*
X600D03*
X500D03*
X400D03*
Y3200D03*
X500D03*
X600D03*
X700D03*
X800D03*
X900D03*
X1000D03*
G54D20*X2050Y2500D03*
G54D21*X1950D03*
X1850D03*
X1750D03*
X1650D03*
X1550D03*
X1450D03*
X1350D03*
X1250D03*
X1150D03*
X1050D03*
X950D03*
X850D03*
X750D03*
Y1900D03*
X850D03*
X950D03*
X1050D03*
X1150D03*
X1250D03*
X1350D03*
X1450D03*
X1550D03*
X1650D03*
X1750D03*
X1850D03*
X1950D03*
X2050D03*
G54D20*Y3000D03*
G54D21*X1950D03*
X1850D03*
X1750D03*
X1650D03*
X1550D03*
X1450D03*
Y2700D03*
X1550D03*
X1650D03*
X1750D03*
X1850D03*
X1950D03*
X2050D03*
G54D20*X850Y3000D03*
G54D21*X750D03*
X650D03*
X550D03*
X450D03*
X350D03*
X250D03*
Y2700D03*
X350D03*
X450D03*
X550D03*
X650D03*
X750D03*
X850D03*
G54D20*X450Y1300D03*
G54D21*X600D03*
G54D20*X2050Y1600D03*
G54D21*X1950D03*
X1850D03*
X1750D03*
X1650D03*
X1550D03*
X1450D03*
X1350D03*
X1250D03*
X1150D03*
X1050D03*
X950D03*
X850D03*
X750D03*
Y1000D03*
X850D03*
X950D03*
X1050D03*
X1150D03*
X1250D03*
X1350D03*
X1450D03*
X1550D03*
X1650D03*
X1750D03*
X1850D03*
X1950D03*
X2050D03*
G54D23*X2270Y3400D03*
X1330D03*
G54D25*X2000Y3350D03*
G54D13*X1950Y3450D03*
X1900Y3350D03*
X1850Y3450D03*
X1800Y3350D03*
X1750Y3450D03*
X1700Y3350D03*
X1650Y3450D03*
X1600Y3350D03*
G54D21*X950Y1100D03*
X400Y2050D03*
X1650Y1350D03*
X600Y1150D03*
X2050D03*
D02*
M02*
