G04 Title: (unknown), silkscreen, component side *
G04 Creator: pcb 1.7.1.ALPHA *
G04 CreationDate: Thu Aug 22 10:44:03 2002 UTC *
G04 For: sgust *
G04 Format: Gerber/RS-274X *
G04 PCB-Dimensions: 2700 4200 *
G04 PCB-Coordinate-Origin: lower left *
%FSLAX23Y23*%
%MOIN*%
%IPPOS*%
%LPD*%
%ADD11C,0.010*%
%ADD12C,0.020*%
%ADD13C,0.100*%
%ADD14C,0.040*%
%ADD15R,0.060X0.060*%
%ADD16R,0.110X0.110*%
%ADD17C,0.060*%
%ADD18C,0.110*%
%ADD19C,0.008*%
%ADD20R,0.090X0.090*%
%ADD21C,0.090*%
%ADD22C,0.250*%
%ADD23C,0.150*%
%ADD24R,0.070X0.070*%
%ADD25R,0.100X0.100*%
%ADD26C,0.070*%
%ADD27C,0.130*%
%ADD28C,0.030*%
%ADD29C,0.012*%
%ADD30C,0.016*%
G01X0Y0D02*
G54D11*X2300Y2450D02*X2200D01*
X2300Y2350D02*Y2450D01*
G54D12*X2200Y2550D02*Y2350D01*
X2300Y2550D02*X2200D01*
X2300Y2350D02*Y2550D01*
X2200Y2350D02*X2300D01*
G04 Text: SWITCH *
G54D19*X2170Y2310D02*X2175Y2305D01*
X2155Y2310D02*X2170D01*
X2150Y2305D02*X2155Y2310D01*
X2150Y2305D02*Y2295D01*
D02*X2155Y2290D01*
D02*X2170D01*
D02*X2175Y2285D01*
D02*Y2275D01*
X2170Y2270D02*X2175Y2275D01*
X2155Y2270D02*X2170D01*
X2150Y2275D02*X2155Y2270D01*
X2188Y2310D02*Y2270D01*
D02*X2203Y2285D01*
D02*X2218Y2270D01*
Y2310D02*Y2270D01*
X2231Y2310D02*X2241D01*
X2236D02*Y2270D01*
X2231D02*X2241D01*
X2254Y2310D02*X2274D01*
X2264D02*Y2270D01*
X2292D02*X2307D01*
X2287Y2275D02*X2292Y2270D01*
X2287Y2305D02*Y2275D01*
Y2305D02*X2292Y2310D01*
D02*X2307D01*
X2320D02*Y2270D01*
X2345Y2310D02*Y2270D01*
X2320Y2290D02*X2345D01*
G54D11*X2249Y2650D02*G75G03I1J100X2249Y2650D01*G01*
G04 Text: R1 1K *
G54D19*X2200Y2900D02*X2220D01*
D02*X2225Y2895D01*
D02*Y2885D01*
X2220Y2880D02*X2225Y2885D01*
X2205Y2880D02*X2220D01*
X2205Y2900D02*Y2860D01*
Y2880D02*X2225Y2860D01*
X2243D02*X2253D01*
X2248Y2900D02*Y2860D01*
X2238Y2890D02*X2248Y2900D01*
X2289Y2860D02*X2299D01*
X2294Y2900D02*Y2860D01*
X2284Y2890D02*X2294Y2900D01*
X2312D02*Y2860D01*
Y2880D02*X2332Y2900D01*
X2312Y2880D02*X2332Y2860D01*
G54D11*X1099Y2650D02*G75G03I1J200X1099Y2650D01*G01*
G04 Text: CB 100nF *
G54D19*X1005Y2810D02*X1020D01*
X1000Y2815D02*X1005Y2810D01*
X1000Y2845D02*Y2815D01*
Y2845D02*X1005Y2850D01*
D02*X1020D01*
X1033Y2810D02*X1053D01*
D02*X1058Y2815D01*
Y2825D02*Y2815D01*
X1053Y2830D02*X1058Y2825D01*
X1038Y2830D02*X1053D01*
X1038Y2850D02*Y2810D01*
X1033Y2850D02*X1053D01*
D02*X1058Y2845D01*
D02*Y2835D01*
X1053Y2830D02*X1058Y2835D01*
X1094Y2810D02*X1104D01*
X1099Y2850D02*Y2810D01*
X1089Y2840D02*X1099Y2850D01*
X1117Y2815D02*X1122Y2810D01*
X1117Y2845D02*Y2815D01*
Y2845D02*X1122Y2850D01*
D02*X1132D01*
D02*X1137Y2845D01*
D02*Y2815D01*
X1132Y2810D02*X1137Y2815D01*
X1122Y2810D02*X1132D01*
X1117Y2820D02*X1137Y2840D01*
X1150Y2815D02*X1155Y2810D01*
X1150Y2845D02*Y2815D01*
Y2845D02*X1155Y2850D01*
D02*X1165D01*
D02*X1170Y2845D01*
D02*Y2815D01*
X1165Y2810D02*X1170Y2815D01*
X1155Y2810D02*X1165D01*
X1150Y2820D02*X1170Y2840D01*
X1188Y2825D02*Y2810D01*
Y2825D02*X1193Y2830D01*
D02*X1198D01*
D02*X1203Y2825D01*
D02*Y2810D01*
X1183Y2830D02*X1188Y2825D01*
X1216Y2850D02*Y2810D01*
Y2850D02*X1236D01*
X1216Y2830D02*X1231D01*
G54D11*X1050Y3550D02*X350D01*
D02*Y3150D01*
D02*X1050D01*
Y3550D02*Y3400D01*
Y3300D02*Y3150D01*
Y3400D02*G75G03I0J-50X1049Y3300D01*G01*
G04 Text: IC5 MC1489 *
G54D19*X600Y3370D02*X610D01*
X605D02*Y3330D01*
X600D02*X610D01*
X628D02*X643D01*
X623Y3335D02*X628Y3330D01*
X623Y3365D02*Y3335D01*
Y3365D02*X628Y3370D01*
D02*X643D01*
X656D02*X676D01*
X656D02*Y3350D01*
D02*X661Y3355D01*
D02*X671D01*
D02*X676Y3350D01*
D02*Y3335D01*
X671Y3330D02*X676Y3335D01*
X661Y3330D02*X671D01*
X656Y3335D02*X661Y3330D01*
X707Y3370D02*Y3330D01*
Y3370D02*X722Y3355D01*
D02*X737Y3370D01*
D02*Y3330D01*
X755D02*X770D01*
X750Y3335D02*X755Y3330D01*
X750Y3365D02*Y3335D01*
Y3365D02*X755Y3370D01*
D02*X770D01*
X788Y3330D02*X798D01*
X793Y3370D02*Y3330D01*
X783Y3360D02*X793Y3370D01*
X811Y3350D02*X831Y3370D01*
X811Y3350D02*X836D01*
X831Y3370D02*Y3330D01*
X849Y3335D02*X854Y3330D01*
X849Y3345D02*Y3335D01*
Y3345D02*X854Y3350D01*
D02*X864D01*
D02*X869Y3345D01*
D02*Y3335D01*
X864Y3330D02*X869Y3335D01*
X854Y3330D02*X864D01*
X849Y3355D02*X854Y3350D01*
X849Y3365D02*Y3355D01*
Y3365D02*X854Y3370D01*
D02*X864D01*
D02*X869Y3365D01*
D02*Y3355D01*
X864Y3350D02*X869Y3355D01*
X882Y3330D02*X902Y3350D01*
Y3365D02*Y3350D01*
X897Y3370D02*X902Y3365D01*
X887Y3370D02*X897D01*
X882Y3365D02*X887Y3370D01*
X882Y3365D02*Y3355D01*
D02*X887Y3350D01*
D02*X902D01*
G54D11*X2100Y2150D02*Y1850D01*
Y2550D02*Y2250D01*
X700Y1850D02*X2100D01*
X700Y2550D02*Y1850D01*
X2100Y2550D02*X700D01*
X2100Y2250D02*G75G03I0J-50X2099Y2150D01*G01*
G04 Text: IC2 62256 *
G54D19*X1700Y2220D02*X1710D01*
X1705D02*Y2180D01*
X1700D02*X1710D01*
X1728D02*X1743D01*
X1723Y2185D02*X1728Y2180D01*
X1723Y2215D02*Y2185D01*
Y2215D02*X1728Y2220D01*
D02*X1743D01*
X1756Y2215D02*X1761Y2220D01*
D02*X1776D01*
D02*X1781Y2215D01*
D02*Y2205D01*
X1756Y2180D02*X1781Y2205D01*
X1756Y2180D02*X1781D01*
X1827Y2220D02*X1832Y2215D01*
X1817Y2220D02*X1827D01*
X1812Y2215D02*X1817Y2220D01*
X1812Y2215D02*Y2185D01*
D02*X1817Y2180D01*
X1827Y2200D02*X1832Y2195D01*
X1812Y2200D02*X1827D01*
X1817Y2180D02*X1827D01*
D02*X1832Y2185D01*
Y2195D02*Y2185D01*
X1845Y2215D02*X1850Y2220D01*
D02*X1865D01*
D02*X1870Y2215D01*
D02*Y2205D01*
X1845Y2180D02*X1870Y2205D01*
X1845Y2180D02*X1870D01*
X1883Y2215D02*X1888Y2220D01*
D02*X1903D01*
D02*X1908Y2215D01*
D02*Y2205D01*
X1883Y2180D02*X1908Y2205D01*
X1883Y2180D02*X1908D01*
X1921Y2220D02*X1941D01*
X1921D02*Y2200D01*
D02*X1926Y2205D01*
D02*X1936D01*
D02*X1941Y2200D01*
D02*Y2185D01*
X1936Y2180D02*X1941Y2185D01*
X1926Y2180D02*X1936D01*
X1921Y2185D02*X1926Y2180D01*
X1969Y2220D02*X1974Y2215D01*
X1959Y2220D02*X1969D01*
X1954Y2215D02*X1959Y2220D01*
X1954Y2215D02*Y2185D01*
D02*X1959Y2180D01*
X1969Y2200D02*X1974Y2195D01*
X1954Y2200D02*X1969D01*
X1959Y2180D02*X1969D01*
D02*X1974Y2185D01*
Y2195D02*Y2185D01*
G54D11*X2100Y2800D02*Y2650D01*
Y3050D02*Y2900D01*
X1400Y2650D02*X2100D01*
X1400Y3050D02*Y2650D01*
X2100Y3050D02*X1400D01*
X2100Y2900D02*G75G03I0J-50X2099Y2800D01*G01*
G04 Text: IC4 74LS00 *
G54D19*X1650Y2870D02*X1660D01*
X1655D02*Y2830D01*
X1650D02*X1660D01*
X1678D02*X1693D01*
X1673Y2835D02*X1678Y2830D01*
X1673Y2865D02*Y2835D01*
Y2865D02*X1678Y2870D01*
D02*X1693D01*
X1706Y2850D02*X1726Y2870D01*
X1706Y2850D02*X1731D01*
X1726Y2870D02*Y2830D01*
X1762D02*X1787Y2855D01*
Y2870D02*Y2855D01*
X1762Y2870D02*X1787D01*
X1800Y2850D02*X1820Y2870D01*
X1800Y2850D02*X1825D01*
X1820Y2870D02*Y2830D01*
X1838Y2870D02*Y2830D01*
D02*X1858D01*
X1891Y2870D02*X1896Y2865D01*
X1876Y2870D02*X1891D01*
X1871Y2865D02*X1876Y2870D01*
X1871Y2865D02*Y2855D01*
D02*X1876Y2850D01*
D02*X1891D01*
D02*X1896Y2845D01*
D02*Y2835D01*
X1891Y2830D02*X1896Y2835D01*
X1876Y2830D02*X1891D01*
X1871Y2835D02*X1876Y2830D01*
X1909Y2835D02*X1914Y2830D01*
X1909Y2865D02*Y2835D01*
Y2865D02*X1914Y2870D01*
D02*X1924D01*
D02*X1929Y2865D01*
D02*Y2835D01*
X1924Y2830D02*X1929Y2835D01*
X1914Y2830D02*X1924D01*
X1909Y2840D02*X1929Y2860D01*
X1942Y2835D02*X1947Y2830D01*
X1942Y2865D02*Y2835D01*
Y2865D02*X1947Y2870D01*
D02*X1957D01*
D02*X1962Y2865D01*
D02*Y2835D01*
X1957Y2830D02*X1962Y2835D01*
X1947Y2830D02*X1957D01*
X1942Y2840D02*X1962Y2860D01*
G54D11*X900Y2800D02*Y2650D01*
Y3050D02*Y2900D01*
X200Y2650D02*X900D01*
X200Y3050D02*Y2650D01*
X900Y3050D02*X200D01*
X900Y2900D02*G75G03I0J-50X899Y2800D01*G01*
G04 Text: IC3 74LS32 *
G54D19*X450Y2870D02*X460D01*
X455D02*Y2830D01*
X450D02*X460D01*
X478D02*X493D01*
X473Y2835D02*X478Y2830D01*
X473Y2865D02*Y2835D01*
Y2865D02*X478Y2870D01*
D02*X493D01*
X506Y2865D02*X511Y2870D01*
D02*X521D01*
D02*X526Y2865D01*
D02*Y2835D01*
X521Y2830D02*X526Y2835D01*
X511Y2830D02*X521D01*
X506Y2835D02*X511Y2830D01*
Y2850D02*X526D01*
X557Y2830D02*X582Y2855D01*
Y2870D02*Y2855D01*
X557Y2870D02*X582D01*
X595Y2850D02*X615Y2870D01*
X595Y2850D02*X620D01*
X615Y2870D02*Y2830D01*
X633Y2870D02*Y2830D01*
D02*X653D01*
X686Y2870D02*X691Y2865D01*
X671Y2870D02*X686D01*
X666Y2865D02*X671Y2870D01*
X666Y2865D02*Y2855D01*
D02*X671Y2850D01*
D02*X686D01*
D02*X691Y2845D01*
D02*Y2835D01*
X686Y2830D02*X691Y2835D01*
X671Y2830D02*X686D01*
X666Y2835D02*X671Y2830D01*
X704Y2865D02*X709Y2870D01*
D02*X719D01*
D02*X724Y2865D01*
D02*Y2835D01*
X719Y2830D02*X724Y2835D01*
X709Y2830D02*X719D01*
X704Y2835D02*X709Y2830D01*
Y2850D02*X724D01*
X737Y2865D02*X742Y2870D01*
D02*X757D01*
D02*X762Y2865D01*
D02*Y2855D01*
X737Y2830D02*X762Y2855D01*
X737Y2830D02*X762D01*
G54D11*X375Y1300D02*G75G03I150J0X375Y1301D01*G01*
G04 Text: C1 47uF *
G54D19*X430Y1210D02*X445D01*
X425Y1215D02*X430Y1210D01*
X425Y1245D02*Y1215D01*
Y1245D02*X430Y1250D01*
D02*X445D01*
X463Y1210D02*X473D01*
X468Y1250D02*Y1210D01*
X458Y1240D02*X468Y1250D01*
X504Y1230D02*X524Y1250D01*
X504Y1230D02*X529D01*
X524Y1250D02*Y1210D01*
X542D02*X567Y1235D01*
Y1250D02*Y1235D01*
X542Y1250D02*X567D01*
X580Y1230D02*Y1215D01*
D02*X585Y1210D01*
D02*X595D01*
D02*X600Y1215D01*
Y1230D02*Y1215D01*
X613Y1250D02*Y1210D01*
Y1250D02*X633D01*
X613Y1230D02*X628D01*
G54D11*X2100Y1650D02*X700D01*
D02*Y950D01*
D02*X2100D01*
Y1650D02*Y1350D01*
Y1250D02*Y950D01*
Y1350D02*G75G03I0J-50X2099Y1250D01*G01*
G04 Text: IC1 27C64/27C128 *
G54D19*X1450Y1270D02*X1460D01*
X1455D02*Y1230D01*
X1450D02*X1460D01*
X1478D02*X1493D01*
X1473Y1235D02*X1478Y1230D01*
X1473Y1265D02*Y1235D01*
Y1265D02*X1478Y1270D01*
D02*X1493D01*
X1511Y1230D02*X1521D01*
X1516Y1270D02*Y1230D01*
X1506Y1260D02*X1516Y1270D01*
X1552Y1265D02*X1557Y1270D01*
D02*X1572D01*
D02*X1577Y1265D01*
D02*Y1255D01*
X1552Y1230D02*X1577Y1255D01*
X1552Y1230D02*X1577D01*
X1590D02*X1615Y1255D01*
Y1270D02*Y1255D01*
X1590Y1270D02*X1615D01*
X1633Y1230D02*X1648D01*
X1628Y1235D02*X1633Y1230D01*
X1628Y1265D02*Y1235D01*
Y1265D02*X1633Y1270D01*
D02*X1648D01*
X1676D02*X1681Y1265D01*
X1666Y1270D02*X1676D01*
X1661Y1265D02*X1666Y1270D01*
X1661Y1265D02*Y1235D01*
D02*X1666Y1230D01*
X1676Y1250D02*X1681Y1245D01*
X1661Y1250D02*X1676D01*
X1666Y1230D02*X1676D01*
D02*X1681Y1235D01*
Y1245D02*Y1235D01*
X1694Y1250D02*X1714Y1270D01*
X1694Y1250D02*X1719D01*
X1714Y1270D02*Y1230D01*
X1732Y1235D02*X1762Y1265D01*
X1775D02*X1780Y1270D01*
D02*X1795D01*
D02*X1800Y1265D01*
D02*Y1255D01*
X1775Y1230D02*X1800Y1255D01*
X1775Y1230D02*X1800D01*
X1813D02*X1838Y1255D01*
Y1270D02*Y1255D01*
X1813Y1270D02*X1838D01*
X1856Y1230D02*X1871D01*
X1851Y1235D02*X1856Y1230D01*
X1851Y1265D02*Y1235D01*
Y1265D02*X1856Y1270D01*
D02*X1871D01*
X1889Y1230D02*X1899D01*
X1894Y1270D02*Y1230D01*
X1884Y1260D02*X1894Y1270D01*
X1912Y1265D02*X1917Y1270D01*
D02*X1932D01*
D02*X1937Y1265D01*
D02*Y1255D01*
X1912Y1230D02*X1937Y1255D01*
X1912Y1230D02*X1937D01*
X1950Y1235D02*X1955Y1230D01*
X1950Y1245D02*Y1235D01*
Y1245D02*X1955Y1250D01*
D02*X1965D01*
D02*X1970Y1245D01*
D02*Y1235D01*
X1965Y1230D02*X1970Y1235D01*
X1955Y1230D02*X1965D01*
X1950Y1255D02*X1955Y1250D01*
X1950Y1265D02*Y1255D01*
Y1265D02*X1955Y1270D01*
D02*X1965D01*
D02*X1970Y1265D01*
D02*Y1255D01*
X1965Y1250D02*X1970Y1255D01*
G04 Text: CON1 *
X2035Y3430D02*X2050D01*
X2030Y3435D02*X2035Y3430D01*
X2030Y3465D02*Y3435D01*
Y3465D02*X2035Y3470D01*
D02*X2050D01*
X2063Y3465D02*Y3435D01*
Y3465D02*X2068Y3470D01*
D02*X2078D01*
D02*X2083Y3465D01*
D02*Y3435D01*
X2078Y3430D02*X2083Y3435D01*
X2068Y3430D02*X2078D01*
X2063Y3435D02*X2068Y3430D01*
X2096Y3470D02*Y3430D01*
Y3470D02*Y3465D01*
D02*X2121Y3440D01*
Y3470D02*Y3430D01*
X2139D02*X2149D01*
X2144Y3470D02*Y3430D01*
X2134Y3460D02*X2144Y3470D01*
G04 Text: SLOT *
X320Y650D02*X325Y645D01*
X305Y650D02*X320D01*
X300Y645D02*X305Y650D01*
X300Y645D02*Y635D01*
D02*X305Y630D01*
D02*X320D01*
D02*X325Y625D01*
D02*Y615D01*
X320Y610D02*X325Y615D01*
X305Y610D02*X320D01*
X300Y615D02*X305Y610D01*
X338Y650D02*Y610D01*
D02*X358D01*
X371Y645D02*Y615D01*
Y645D02*X376Y650D01*
D02*X386D01*
D02*X391Y645D01*
D02*Y615D01*
X386Y610D02*X391Y615D01*
X376Y610D02*X386D01*
X371Y615D02*X376Y610D01*
X404Y650D02*X424D01*
X414D02*Y610D01*
G54D28*X600Y1150D02*X2050D01*
G04 Text: JP WIRE *
G54D19*X850Y1250D02*X865D01*
D02*Y1215D01*
X860Y1210D02*X865Y1215D01*
X855Y1210D02*X860D01*
X850Y1215D02*X855Y1210D01*
X883Y1250D02*Y1210D01*
X878Y1250D02*X898D01*
D02*X903Y1245D01*
D02*Y1235D01*
X898Y1230D02*X903Y1235D01*
X883Y1230D02*X898D01*
X934Y1250D02*Y1210D01*
D02*X949Y1225D01*
D02*X964Y1210D01*
Y1250D02*Y1210D01*
X977Y1250D02*X987D01*
X982D02*Y1210D01*
X977D02*X987D01*
X1000Y1250D02*X1020D01*
D02*X1025Y1245D01*
D02*Y1235D01*
X1020Y1230D02*X1025Y1235D01*
X1005Y1230D02*X1020D01*
X1005Y1250D02*Y1210D01*
Y1230D02*X1025Y1210D01*
X1038Y1230D02*X1053D01*
X1038Y1210D02*X1058D01*
X1038Y1250D02*Y1210D01*
Y1250D02*X1058D01*
D02*
M02*
