G04 Title: (unknown), layergroup #2 *
G04 Creator: pcb 1.7.1.ALPHA *
G04 CreationDate: Thu Aug 22 10:44:03 2002 UTC *
G04 For: sgust *
G04 Format: Gerber/RS-274X *
G04 PCB-Dimensions: 2700 4200 *
G04 PCB-Coordinate-Origin: lower left *
%FSLAX23Y23*%
%MOIN*%
%LNGROUP_1*%
G04 contains layers component (3) GND-comp (4) Vcc-comp (5) *
%IPPOS*%
%LPD*%
%ADD11C,0.010*%
%ADD12C,0.020*%
%ADD13C,0.100*%
%ADD14C,0.040*%
%ADD15R,0.060X0.060*%
%ADD16R,0.110X0.110*%
%ADD17C,0.060*%
%ADD18C,0.110*%
%ADD19C,0.008*%
%ADD20R,0.090X0.090*%
%ADD21C,0.090*%
%ADD22C,0.250*%
%ADD23C,0.150*%
%ADD24R,0.070X0.070*%
%ADD25R,0.100X0.100*%
%ADD26C,0.070*%
%ADD27C,0.130*%
%ADD28C,0.030*%
%ADD29C,0.012*%
%ADD30C,0.016*%
G01X0Y0D02*
G54D11*X200Y500D02*Y3350D01*
X1800Y1550D02*X1650Y1400D01*
X1800Y1700D02*Y1550D01*
X1750Y1750D02*X1800Y1700D01*
X1750Y1900D02*Y1750D01*
X1450Y2800D02*Y2700D01*
X1600Y2950D02*X1450Y2800D01*
X1600Y3050D02*Y2950D01*
X1500Y3150D02*X1600Y3050D01*
X1150Y3150D02*X1500D01*
X1100Y3100D02*X1150Y3150D01*
X950Y3100D02*X1100D01*
X900Y3050D02*X950Y3100D01*
X900Y2900D02*Y3050D01*
X850Y2850D02*X900Y2900D01*
X600Y2850D02*X850D01*
X550Y2900D02*X600Y2850D01*
X550Y3000D02*Y2900D01*
X650Y3250D02*Y3000D01*
X700Y3300D02*X650Y3250D01*
X1050Y3300D02*X700D01*
X1100Y3250D02*X1050Y3300D01*
X2000Y3250D02*X1100D01*
X2050Y3200D02*X2000Y3250D01*
X2050Y3000D02*Y3200D01*
X1950Y3100D02*Y3000D01*
X1850Y3200D02*X1950Y3100D01*
X1100Y3200D02*X1850D01*
X1050Y3150D02*X1100Y3200D01*
X850Y3150D02*X1050D01*
X800Y3100D02*X850Y3150D01*
X800Y2950D02*Y3100D01*
X750Y2900D02*X800Y2950D01*
X650Y2900D02*X750D01*
X600Y2950D02*X650Y2900D01*
X600Y3050D02*Y2950D01*
X550Y3100D02*X600Y3050D01*
X400Y3100D02*X550D01*
X350Y3050D02*X400Y3100D01*
X350Y3000D02*Y3050D01*
X400Y2950D02*Y2050D01*
X450Y3000D02*X400Y2950D01*
X1250Y2800D02*X400D01*
X1300Y2850D02*X1250Y2800D01*
X1300Y3050D02*Y2850D01*
X1350Y3100D02*X1300Y3050D01*
X1450Y3100D02*X1350D01*
X1500Y3050D02*X1450Y3100D01*
X1500Y2950D02*Y3050D01*
X1400Y2850D02*X1500Y2950D01*
X1400Y2650D02*Y2850D01*
X1800Y2650D02*X1400D01*
X1850Y2700D02*X1800Y2650D01*
X1450Y2200D02*Y1900D01*
X1500Y2250D02*X1450Y2200D01*
X1500Y2600D02*Y2250D01*
X1850D02*Y2500D01*
X1750Y2250D02*Y2500D01*
X1650Y2250D02*Y2500D01*
X1550Y2250D02*Y2500D01*
X1450Y2250D02*Y2500D01*
X1350Y2250D02*Y2500D01*
X1250Y2250D02*Y2500D01*
X1150Y2250D02*Y2500D01*
X2000Y1650D02*X1900D01*
X1450Y1100D02*X1400Y1050D01*
X1500Y1100D02*X1450D01*
X1900Y1500D02*X1500Y1100D01*
X1900Y1700D02*Y1500D01*
X1500Y1050D02*X1950Y1500D01*
D02*Y1600D01*
X1850Y1750D02*X1900Y1700D01*
X1850Y1900D02*Y1750D01*
X1800Y2200D02*X1850Y2250D01*
X1800Y1750D02*Y2200D01*
X1850Y1700D02*X1800Y1750D01*
X1850Y1600D02*Y1700D01*
X1700Y2200D02*X1750Y2250D01*
X1700Y1750D02*Y2200D01*
X1750Y1700D02*X1700Y1750D01*
X1750Y1600D02*Y1700D01*
X1600Y2200D02*X1650Y2250D01*
X1600Y1750D02*Y2200D01*
X1650Y1700D02*X1600Y1750D01*
X1650Y1600D02*Y1700D01*
X1500Y2200D02*X1550Y2250D01*
X1500Y1750D02*Y2200D01*
X1550Y1700D02*X1500Y1750D01*
X1550Y1600D02*Y1700D01*
X1400Y2200D02*X1450Y2250D01*
X1400Y1750D02*Y2200D01*
X1450Y1700D02*X1400Y1750D01*
X1450Y1600D02*Y1700D01*
X1300Y2200D02*X1350Y2250D01*
X1300Y1750D02*Y2200D01*
X1350Y1700D02*X1300Y1750D01*
X1350Y1600D02*Y1700D01*
X1200Y2200D02*X1250Y2250D01*
X1200Y1750D02*Y2200D01*
X1250Y1700D02*X1200Y1750D01*
X1250Y1600D02*Y1700D01*
X1100Y2200D02*X1150Y2250D01*
X1100Y1750D02*Y2200D01*
X1150Y1700D02*X1100Y1750D01*
X1150Y1600D02*Y1700D01*
X950Y1850D02*Y1900D01*
X1100Y1700D02*X950Y1850D01*
X1100Y1550D02*Y1700D01*
X900Y1350D02*X1100Y1550D01*
X900Y1050D02*Y1350D01*
X950Y1000D02*X900Y1050D01*
X1950Y700D02*Y500D01*
X1900Y750D02*X1950Y700D01*
X1600Y750D02*X1900D01*
X1400Y950D02*X1600Y750D01*
X1400Y1050D02*Y950D01*
X2050Y750D02*Y500D01*
X2000Y800D02*X2050Y750D01*
X1650Y800D02*X2000D01*
X1500Y950D02*X1650Y800D01*
X1500Y1050D02*Y950D01*
X2250Y800D02*Y500D01*
X2200Y850D02*X2250Y800D01*
X1650Y850D02*X2200D01*
X1550Y950D02*X1650Y850D01*
X1550Y1000D02*Y950D01*
X2400Y800D02*Y500D01*
X2300Y900D02*X2400Y800D01*
X1700Y900D02*X2300D01*
X1650Y950D02*X1700Y900D01*
X1650Y1000D02*Y950D01*
X2000Y1250D02*Y1650D01*
X1850Y1100D02*X2000Y1250D01*
X1850Y1000D02*Y1100D01*
X1600Y550D02*Y500D01*
X1350Y800D02*X1600Y550D01*
X1350Y1000D02*Y800D01*
X1200Y1100D02*X950D01*
X1250Y1050D02*X1200Y1100D01*
X1250Y1000D02*Y1050D01*
X1450Y550D02*Y500D01*
X1150Y850D02*X1450Y550D01*
X1150Y1000D02*Y850D01*
X1300Y550D02*Y500D01*
X1050Y800D02*X1300Y550D01*
X1050Y1000D02*Y800D01*
X1150Y550D02*Y500D01*
X950Y750D02*X1150Y550D01*
X950Y1000D02*Y750D01*
X1000Y550D02*Y500D01*
X850Y700D02*X1000Y550D01*
X850Y1000D02*Y700D01*
X800Y3450D02*Y3500D01*
X750Y3400D02*X800Y3450D01*
X250Y3400D02*X750D01*
X200Y3350D02*X250Y3400D01*
X1650Y1400D02*Y1350D01*
X350Y1700D02*Y500D01*
X400Y1750D02*X350Y1700D01*
X950Y1750D02*X400D01*
X1050Y1650D02*X950Y1750D01*
X1050Y1600D02*Y1650D01*
X500D02*Y500D01*
X550Y1700D02*X500Y1650D01*
X900Y1700D02*X550D01*
X950Y1650D02*X900Y1700D01*
X950Y1600D02*Y1650D01*
X700Y1400D02*Y550D01*
X800D02*Y500D01*
X750Y600D02*X800Y550D01*
X850Y1550D02*X700Y1400D01*
X850Y1600D02*Y1550D01*
X750Y1000D02*Y600D01*
X700Y550D02*X650Y500D01*
G04 Text: COMPONENT *
G54D19*X290Y1655D02*Y1670D01*
X285Y1650D02*X290Y1655D01*
X255Y1650D02*X285D01*
X255D02*X250Y1655D01*
D02*Y1670D01*
X255Y1683D02*X285D01*
X255D02*X250Y1688D01*
D02*Y1698D01*
D02*X255Y1703D01*
D02*X285D01*
X290Y1698D02*X285Y1703D01*
X290Y1688D02*Y1698D01*
X285Y1683D02*X290Y1688D01*
X250Y1716D02*X290D01*
X250D02*X265Y1731D01*
D02*X250Y1746D01*
D02*X290D01*
X250Y1764D02*X290D01*
X250Y1759D02*Y1779D01*
D02*X255Y1784D01*
D02*X265D01*
X270Y1779D02*X265Y1784D01*
X270Y1764D02*Y1779D01*
X255Y1797D02*X285D01*
X255D02*X250Y1802D01*
D02*Y1812D01*
D02*X255Y1817D01*
D02*X285D01*
X290Y1812D02*X285Y1817D01*
X290Y1802D02*Y1812D01*
X285Y1797D02*X290Y1802D01*
X250Y1830D02*X290D01*
X250D02*X255D01*
D02*X280Y1855D01*
X250D02*X290D01*
X270Y1868D02*Y1883D01*
X290Y1868D02*Y1888D01*
X250Y1868D02*X290D01*
X250D02*Y1888D01*
Y1901D02*X290D01*
X250D02*X255D01*
D02*X280Y1926D01*
X250D02*X290D01*
X250Y1939D02*Y1959D01*
Y1949D02*X290D01*
G04 Text: BS *
G54D30*X2150Y970D02*X2190D01*
D02*X2200Y980D01*
Y1000D02*Y980D01*
X2190Y1010D02*X2200Y1000D01*
X2160Y1010D02*X2190D01*
X2160Y1050D02*Y970D01*
X2150Y1050D02*X2190D01*
D02*X2200Y1040D01*
D02*Y1020D01*
X2190Y1010D02*X2200Y1020D01*
X2266Y1050D02*X2276Y1040D01*
X2236Y1050D02*X2266D01*
X2226Y1040D02*X2236Y1050D01*
X2226Y1040D02*Y1020D01*
D02*X2236Y1010D01*
D02*X2266D01*
D02*X2276Y1000D01*
D02*Y980D01*
X2266Y970D02*X2276Y980D01*
X2236Y970D02*X2266D01*
X2226Y980D02*X2236Y970D01*
G54D12*X1100Y2750D02*Y2600D01*
X1350Y2950D02*Y2600D01*
X1400Y3000D02*X1350Y2950D01*
X1450Y3000D02*X1400D01*
X2050Y2550D02*Y2500D01*
X2000Y2600D02*X2050Y2550D01*
X800Y2600D02*X2000D01*
X750Y2550D02*X800Y2600D01*
X750Y2500D02*Y2550D01*
G54D15*X2250Y2400D03*
G54D17*Y2500D03*
G54D15*Y2700D03*
G54D17*Y2800D03*
G54D15*X1100Y2750D03*
G54D17*Y2950D03*
G54D15*X1000Y3500D03*
G54D17*X900D03*
X800D03*
X700D03*
X600D03*
X500D03*
X400D03*
Y3200D03*
X500D03*
X600D03*
X700D03*
X800D03*
X900D03*
X1000D03*
G54D15*X2050Y2500D03*
G54D17*X1950D03*
X1850D03*
X1750D03*
X1650D03*
X1550D03*
X1450D03*
X1350D03*
X1250D03*
X1150D03*
X1050D03*
X950D03*
X850D03*
X750D03*
Y1900D03*
X850D03*
X950D03*
X1050D03*
X1150D03*
X1250D03*
X1350D03*
X1450D03*
X1550D03*
X1650D03*
X1750D03*
X1850D03*
X1950D03*
X2050D03*
G54D15*Y3000D03*
G54D17*X1950D03*
X1850D03*
X1750D03*
X1650D03*
X1550D03*
X1450D03*
Y2700D03*
X1550D03*
X1650D03*
X1750D03*
X1850D03*
X1950D03*
X2050D03*
G54D15*X850Y3000D03*
G54D17*X750D03*
X650D03*
X550D03*
X450D03*
X350D03*
X250D03*
Y2700D03*
X350D03*
X450D03*
X550D03*
X650D03*
X750D03*
X850D03*
G54D15*X450Y1300D03*
G54D17*X600D03*
G54D15*X2050Y1600D03*
G54D17*X1950D03*
X1850D03*
X1750D03*
X1650D03*
X1550D03*
X1450D03*
X1350D03*
X1250D03*
X1150D03*
X1050D03*
X950D03*
X850D03*
X750D03*
Y1000D03*
X850D03*
X950D03*
X1050D03*
X1150D03*
X1250D03*
X1350D03*
X1450D03*
X1550D03*
X1650D03*
X1750D03*
X1850D03*
X1950D03*
X2050D03*
G54D22*X2270Y3400D03*
X1330D03*
G54D24*X2000Y3350D03*
G54D26*X1950Y3450D03*
X1900Y3350D03*
X1850Y3450D03*
X1800Y3350D03*
X1750Y3450D03*
X1700Y3350D03*
X1650Y3450D03*
X1600Y3350D03*
G54D13*X215Y480D02*Y170D01*
X370Y480D02*Y170D01*
X525Y480D02*Y170D01*
X680Y480D02*Y170D01*
X835Y480D02*Y170D01*
X990Y480D02*Y170D01*
X1145Y480D02*Y170D01*
X1300Y480D02*Y170D01*
X1455Y480D02*Y170D01*
X1610Y480D02*Y170D01*
X1765Y480D02*Y170D01*
X1920Y480D02*Y170D01*
X2075Y480D02*Y170D01*
X2230Y480D02*Y170D01*
X2385Y480D02*Y170D01*
G54D17*X950Y1100D03*
X400Y2050D03*
X1650Y1350D03*
X600Y1150D03*
X2050D03*
D02*
M02*
