M48
INCH,TZ
T01F00S00C0.030
T02F00S00C0.040
T03F00S00C0.120
%
T01
X2250Y2700
X2250Y2800
X1100Y2750
X1100Y2950
X1000Y3500
X900Y3500
X800Y3500
X700Y3500
X600Y3500
X500Y3500
X400Y3500
X400Y3200
X500Y3200
X600Y3200
X700Y3200
X800Y3200
X900Y3200
X1000Y3200
X2050Y2500
X1950Y2500
X1850Y2500
X1750Y2500
X1650Y2500
X1550Y2500
X1450Y2500
X1350Y2500
X1250Y2500
X1150Y2500
X1050Y2500
X950Y2500
X850Y2500
X750Y2500
X750Y1900
X850Y1900
X950Y1900
X1050Y1900
X1150Y1900
X1250Y1900
X1350Y1900
X1450Y1900
X1550Y1900
X1650Y1900
X1750Y1900
X1850Y1900
X1950Y1900
X2050Y1900
X2050Y3000
X1950Y3000
X1850Y3000
X1750Y3000
X1650Y3000
X1550Y3000
X1450Y3000
X1450Y2700
X1550Y2700
X1650Y2700
X1750Y2700
X1850Y2700
X1950Y2700
X2050Y2700
X850Y3000
X750Y3000
X650Y3000
X550Y3000
X450Y3000
X350Y3000
X250Y3000
X250Y2700
X350Y2700
X450Y2700
X550Y2700
X650Y2700
X750Y2700
X850Y2700
X450Y1300
X600Y1300
X2050Y1600
X1950Y1600
X1850Y1600
X1750Y1600
X1650Y1600
X1550Y1600
X1450Y1600
X1350Y1600
X1250Y1600
X1150Y1600
X1050Y1600
X950Y1600
X850Y1600
X750Y1600
X750Y1000
X850Y1000
X950Y1000
X1050Y1000
X1150Y1000
X1250Y1000
X1350Y1000
X1450Y1000
X1550Y1000
X1650Y1000
X1750Y1000
X1850Y1000
X1950Y1000
X2050Y1000
X950Y1100
X400Y2050
X1650Y1350
X600Y1150
X2050Y1150
T02
X2250Y2400
X2250Y2500
X2000Y3350
X1950Y3450
X1900Y3350
X1850Y3450
X1800Y3350
X1750Y3450
X1700Y3350
X1650Y3450
X1600Y3350
T03
X2270Y3400
X1330Y3400
M30
