G04 Title: (unknown), layergroup #1 *
G04 Creator: pcb 1.7.1.ALPHA *
G04 CreationDate: Thu Aug 22 10:44:03 2002 UTC *
G04 For: sgust *
G04 Format: Gerber/RS-274X *
G04 PCB-Dimensions: 2700 4200 *
G04 PCB-Coordinate-Origin: lower left *
%FSLAX23Y23*%
%MOIN*%
%LNGROUP_0*%
G04 contains layers solder (0) GND-sldr (1) Vcc-sldr (2) *
%IPPOS*%
%LPD*%
%ADD11C,0.010*%
%ADD12C,0.020*%
%ADD13C,0.100*%
%ADD14C,0.040*%
%ADD15R,0.060X0.060*%
%ADD16R,0.110X0.110*%
%ADD17C,0.060*%
%ADD18C,0.110*%
%ADD19C,0.008*%
%ADD20R,0.090X0.090*%
%ADD21C,0.090*%
%ADD22C,0.250*%
%ADD23C,0.150*%
%ADD24R,0.070X0.070*%
%ADD25R,0.100X0.100*%
%ADD26C,0.070*%
%ADD27C,0.130*%
%ADD28C,0.030*%
%ADD29C,0.012*%
%ADD30C,0.016*%
G01X0Y0D02*
G54D11*X1750Y3300D02*X1700Y3350D01*
X1950Y3300D02*X1750D01*
X2000Y3350D02*X1950Y3300D01*
X2000Y3400D02*Y3350D01*
X1950Y3450D02*X2000Y3400D01*
X1750Y3450D02*X1850D01*
Y3400D02*X1900Y3350D01*
X1550Y3400D02*X1850D01*
X1400Y3550D02*X1550Y3400D01*
X1050Y3550D02*X1400D01*
X1000Y3500D02*X1050Y3550D01*
X2100Y2400D02*X2250D01*
X2050Y2450D02*X2100Y2400D01*
X2050Y2500D02*Y2450D01*
X1650Y3000D02*X1850D01*
X2250Y2550D02*Y2500D01*
X2200Y2600D02*X2250Y2550D01*
X2000Y2600D02*X2200D01*
X1950Y2650D02*X2000Y2600D01*
X1950Y2800D02*Y2650D01*
X1600Y2800D02*X2250D01*
X1550Y2700D02*X1650D01*
X1600D02*X1550D01*
X1600Y3050D02*Y2700D01*
X1250Y3050D02*X1600D01*
X1200Y3000D02*X1250Y3050D01*
X1200Y2700D02*Y3000D01*
X1150Y2650D02*X1200Y2700D01*
X800Y2650D02*X1150D01*
X800Y2850D02*Y2650D01*
X850Y2900D02*X800Y2850D01*
X850Y3000D02*Y2900D01*
X750D02*Y3000D01*
X700Y2850D02*X750Y2900D01*
X700Y2650D02*Y2850D01*
X750Y2600D02*X700Y2650D01*
X1150Y2600D02*X750D01*
X1200Y2550D02*X1150Y2600D01*
X1300Y2750D02*X1550Y3000D01*
X1300Y2300D02*Y2750D01*
X1250Y2250D02*X1300Y2300D01*
X1800Y2250D02*X1500Y1950D01*
X1800Y2600D02*Y2250D01*
X1750Y2650D02*X1800Y2600D01*
X1750Y2700D02*Y2650D01*
X1850Y2600D02*Y2700D01*
X1900Y2550D02*X1850Y2600D01*
X1900Y2050D02*Y2550D01*
X1950Y2000D02*X1900Y2050D01*
X1950Y1900D02*Y2000D01*
Y2350D02*Y2500D01*
X2000Y2300D02*X1950Y2350D01*
X2000Y1550D02*Y2300D01*
X1750Y1300D02*X2000Y1550D01*
X1750Y1000D02*Y1300D01*
X1650Y1800D02*Y1900D01*
X1700Y1750D02*X1650Y1800D01*
X1900Y1750D02*X1700D01*
X1950Y1700D02*X1900Y1750D01*
X1950Y1600D02*Y1700D01*
X1650Y1000D02*Y1350D01*
X1550Y1800D02*Y1900D01*
X1700Y1650D02*X1550Y1800D01*
X1700Y1550D02*Y1650D01*
X1550Y1400D02*X1700Y1550D01*
X1550Y1000D02*Y1400D01*
X1500Y1800D02*Y1950D01*
X1600Y1700D02*X1500Y1800D01*
X1600Y1550D02*Y1700D01*
X1450Y1400D02*X1600Y1550D01*
X1450Y1000D02*Y1400D01*
X1350Y1800D02*Y1900D01*
X1500Y1650D02*X1350Y1800D01*
X1500Y1550D02*Y1650D01*
X1350Y1400D02*X1500Y1550D01*
X1350Y1000D02*Y1400D01*
X1250Y1900D02*Y2250D01*
X1200Y1850D02*Y2550D01*
X1400Y1650D02*X1200Y1850D01*
X1400Y1550D02*Y1650D01*
X1250Y1400D02*X1400Y1550D01*
X1250Y1000D02*Y1400D01*
X1150D02*Y1000D01*
X1300Y1550D02*X1150Y1400D01*
X1300Y1650D02*Y1550D01*
X1150Y1800D02*X1300Y1650D01*
X1150Y1900D02*Y1800D01*
X850Y2300D02*Y2500D01*
X800Y2250D02*X850Y2300D01*
X800Y1750D02*Y2250D01*
X900D02*X950Y2300D01*
X900Y1750D02*Y2250D01*
X1000D02*X1050Y2300D01*
X1000Y1750D02*Y2250D01*
X1050Y1700D02*X1000Y1750D01*
X1050Y1600D02*Y1700D01*
Y2300D02*Y2500D01*
X950Y1700D02*X900Y1750D01*
X950Y1600D02*Y1700D01*
Y2300D02*Y2500D01*
X850Y1700D02*X800Y1750D01*
X850Y1600D02*Y1700D01*
X1050Y1800D02*Y1900D01*
X1200Y1650D02*X1050Y1800D01*
X1200Y1550D02*Y1650D01*
X1050Y1400D02*X1200Y1550D01*
X1050Y1000D02*Y1400D01*
X850Y1750D02*Y1900D01*
X900Y1700D02*X850Y1750D01*
X900Y1450D02*Y1700D01*
X850Y1400D02*X900Y1450D01*
X850Y1000D02*Y1400D01*
X750Y1750D02*Y1900D01*
X800Y1700D02*X750Y1750D01*
X800Y1450D02*Y1700D01*
X750Y1400D02*X800Y1450D01*
X750Y1000D02*Y1400D01*
X2400Y850D02*Y500D01*
X2350Y900D02*X2400Y850D01*
X1950Y900D02*X2350D01*
X1900Y950D02*X1950Y900D01*
X1800Y950D02*X1900D01*
X1750Y1000D02*X1800Y950D01*
X1950Y1000D02*X2050D01*
X1750Y1650D02*Y1600D01*
X1900Y1650D02*X1750D01*
X1900Y1550D02*Y1650D01*
X1700Y1350D02*X1900Y1550D01*
X1700Y950D02*Y1350D01*
X1750Y900D02*X1700Y950D01*
X1850Y900D02*X1750D01*
X2200Y550D02*X1850Y900D01*
X2200Y500D02*Y550D01*
X1800Y1550D02*X1850Y1600D01*
X1750Y1550D02*X1800D01*
X1600Y1400D02*X1750Y1550D01*
X1600Y900D02*Y1400D01*
X1650Y850D02*X1600Y900D01*
X1750Y850D02*X1650D01*
X2050Y550D02*X1750Y850D01*
X2050Y500D02*Y550D01*
X1900D02*Y500D01*
X1650Y800D02*X1900Y550D01*
X1550Y800D02*X1650D01*
X1500Y850D02*X1550Y800D01*
X1500Y1400D02*Y850D01*
X1650Y1550D02*X1500Y1400D01*
X1650Y1600D02*Y1550D01*
X1750Y550D02*Y500D01*
X1550Y750D02*X1750Y550D01*
X1450Y750D02*X1550D01*
X1400Y800D02*X1450Y750D01*
X1400Y1400D02*Y800D01*
X1550Y1550D02*X1400Y1400D01*
X1550Y1600D02*Y1550D01*
X1600Y550D02*Y500D01*
X1450Y700D02*X1600Y550D01*
X1350Y700D02*X1450D01*
X1300Y750D02*X1350Y700D01*
X1300Y1400D02*Y750D01*
X1450Y1550D02*X1300Y1400D01*
X1450Y1600D02*Y1550D01*
X1350D02*Y1600D01*
X1200Y1400D02*X1350Y1550D01*
X1200Y700D02*Y1400D01*
X1250Y650D02*X1200Y700D01*
X1350Y650D02*X1250D01*
X1450Y550D02*X1350Y650D01*
X1450Y500D02*Y550D01*
X1300D02*Y500D01*
X1250Y600D02*X1300Y550D01*
X1150Y600D02*X1250D01*
X1100Y650D02*X1150Y600D01*
X1100Y1400D02*Y650D01*
X1250Y1550D02*X1100Y1400D01*
X1250Y1600D02*Y1550D01*
X1150D02*Y1600D01*
X1000Y1400D02*X1150Y1550D01*
X1000Y650D02*Y1400D01*
X1150Y500D02*X1000Y650D01*
X900Y1050D02*X950Y1100D01*
X900Y950D02*Y1050D01*
X950Y900D02*X900Y950D01*
X950Y500D02*Y900D01*
X400Y650D02*Y2050D01*
X350Y600D02*X400Y650D01*
X250Y600D02*X350D01*
X200Y550D02*X250Y600D01*
X200Y500D02*Y550D01*
G04 Text: SOLDER *
G54D19*X300Y2020D02*X295Y2025D01*
X300Y2005D02*Y2020D01*
X295Y2000D02*X300Y2005D01*
X295Y2000D02*X285D01*
D02*X280Y2005D01*
D02*Y2020D01*
D02*X275Y2025D01*
D02*X265D01*
X260Y2020D02*X265Y2025D01*
X260Y2005D02*Y2020D01*
X265Y2000D02*X260Y2005D01*
X295Y2038D02*X265D01*
X295D02*X300Y2043D01*
D02*Y2053D01*
D02*X295Y2058D01*
D02*X265D01*
X260Y2053D02*X265Y2058D01*
X260Y2043D02*Y2053D01*
X265Y2038D02*X260Y2043D01*
X300Y2071D02*X260D01*
D02*Y2091D01*
X300Y2109D02*X260D01*
X300Y2124D02*X295Y2129D01*
D02*X265D01*
X260Y2124D02*X265Y2129D01*
X260Y2104D02*Y2124D01*
X300Y2104D02*Y2124D01*
X280Y2142D02*Y2157D01*
X260Y2142D02*Y2162D01*
X300Y2142D02*X260D01*
X300D02*Y2162D01*
Y2175D02*Y2195D01*
D02*X295Y2200D01*
D02*X285D01*
X280Y2195D02*X285Y2200D01*
X280Y2180D02*Y2195D01*
X300Y2180D02*X260D01*
X280D02*X260Y2200D01*
G04 Text: (C) 1997-2001 by Soeren Gust *
G54D29*X2402D02*X2410Y2193D01*
X2357Y2200D02*X2350Y2193D01*
X2357Y2200D02*X2402D01*
X2410Y2166D02*Y2143D01*
X2402Y2173D02*X2410Y2166D01*
X2357Y2173D02*X2402D01*
X2357D02*X2350Y2166D01*
D02*Y2143D01*
Y2124D02*X2357Y2116D01*
D02*X2402D01*
X2410Y2124D02*X2402Y2116D01*
X2410Y2062D02*Y2047D01*
X2350Y2055D02*X2410D01*
X2365Y2070D02*X2350Y2055D01*
X2410Y2028D02*X2380Y1998D01*
X2357D02*X2380D01*
X2350Y2005D02*X2357Y1998D01*
X2350Y2020D02*Y2005D01*
X2357Y2028D02*X2350Y2020D01*
X2357Y2028D02*X2372D01*
D02*X2380Y2020D01*
D02*Y1998D01*
X2410Y1978D02*X2380Y1948D01*
X2357D02*X2380D01*
X2350Y1956D02*X2357Y1948D01*
X2350Y1971D02*Y1956D01*
X2357Y1978D02*X2350Y1971D01*
X2357Y1978D02*X2372D01*
D02*X2380Y1971D01*
D02*Y1948D01*
X2410Y1929D02*X2372Y1891D01*
X2350D02*X2372D01*
X2350Y1929D02*Y1891D01*
X2380Y1872D02*Y1842D01*
X2357Y1822D02*X2350Y1815D01*
D02*Y1792D01*
D02*X2357Y1785D01*
D02*X2372D01*
X2410Y1822D02*X2372Y1785D01*
X2410Y1822D02*Y1785D01*
X2402Y1765D02*X2410Y1758D01*
X2357Y1765D02*X2402D01*
X2357D02*X2350Y1758D01*
D02*Y1743D01*
D02*X2357Y1735D01*
D02*X2402D01*
X2410Y1743D02*X2402Y1735D01*
X2410Y1758D02*Y1743D01*
X2395Y1765D02*X2365Y1735D01*
X2402Y1716D02*X2410Y1708D01*
X2357Y1716D02*X2402D01*
X2357D02*X2350Y1708D01*
D02*Y1693D01*
D02*X2357Y1686D01*
D02*X2402D01*
X2410Y1693D02*X2402Y1686D01*
X2410Y1708D02*Y1693D01*
X2395Y1716D02*X2365Y1686D01*
X2410Y1659D02*Y1644D01*
X2350Y1651D02*X2410D01*
X2365Y1666D02*X2350Y1651D01*
Y1597D02*X2410D01*
X2402D02*X2410Y1590D01*
D02*Y1575D01*
D02*X2402Y1567D01*
X2387D02*X2402D01*
X2380Y1575D02*X2387Y1567D01*
X2380Y1590D02*Y1575D01*
X2387Y1597D02*X2380Y1590D01*
Y1548D02*X2402D01*
D02*X2410Y1540D01*
X2380Y1518D02*X2425D01*
X2432Y1525D02*X2425Y1518D01*
X2432Y1540D02*Y1525D01*
X2425Y1548D02*X2432Y1540D01*
X2410D02*Y1525D01*
D02*X2402Y1518D01*
X2350Y1441D02*X2357Y1434D01*
X2350Y1464D02*Y1441D01*
X2357Y1471D02*X2350Y1464D01*
X2357Y1471D02*X2372D01*
D02*X2380Y1464D01*
D02*Y1441D01*
D02*X2387Y1434D01*
D02*X2402D01*
X2410Y1441D02*X2402Y1434D01*
X2410Y1464D02*Y1441D01*
X2402Y1471D02*X2410Y1464D01*
X2387Y1414D02*X2402D01*
X2387D02*X2380Y1407D01*
D02*Y1392D01*
D02*X2387Y1384D01*
D02*X2402D01*
X2410Y1392D02*X2402Y1384D01*
X2410Y1407D02*Y1392D01*
X2402Y1414D02*X2410Y1407D01*
Y1357D02*Y1335D01*
X2402Y1365D02*X2410Y1357D01*
X2387Y1365D02*X2402D01*
X2387D02*X2380Y1357D01*
D02*Y1342D01*
D02*X2387Y1335D01*
X2395Y1365D02*Y1335D01*
D02*X2387D01*
Y1308D02*X2410D01*
X2387D02*X2380Y1300D01*
D02*Y1285D01*
Y1315D02*X2387Y1308D01*
X2410Y1258D02*Y1236D01*
X2402Y1266D02*X2410Y1258D01*
X2387Y1266D02*X2402D01*
X2387D02*X2380Y1258D01*
D02*Y1243D01*
D02*X2387Y1236D01*
X2395Y1266D02*Y1236D01*
D02*X2387D01*
Y1209D02*X2410D01*
X2387D02*X2380Y1201D01*
D02*Y1194D01*
D02*X2387Y1186D01*
D02*X2410D01*
X2380Y1216D02*X2387Y1209D01*
X2350Y1110D02*X2357Y1102D01*
X2350Y1132D02*Y1110D01*
X2357Y1140D02*X2350Y1132D01*
X2357Y1140D02*X2402D01*
D02*X2410Y1132D01*
D02*Y1110D01*
D02*X2402Y1102D01*
X2387D02*X2402D01*
X2380Y1110D02*X2387Y1102D01*
X2380Y1125D02*Y1110D01*
Y1083D02*X2402D01*
D02*X2410Y1075D01*
D02*Y1060D01*
D02*X2402Y1053D01*
X2380D02*X2402D01*
X2410Y1026D02*Y1003D01*
D02*X2402Y996D01*
X2395Y1003D02*X2402Y996D01*
X2395Y1026D02*Y1003D01*
X2387Y1033D02*X2395Y1026D01*
X2387Y1033D02*X2380Y1026D01*
D02*Y1003D01*
D02*X2387Y996D01*
X2402Y1033D02*X2410Y1026D01*
X2350Y969D02*X2402D01*
D02*X2410Y961D01*
X2372Y976D02*Y961D01*
G04 Text: G7000RAM Version 1.1a *
X2200Y2020D02*X2207Y2013D01*
X2200Y2043D02*Y2020D01*
X2207Y2050D02*X2200Y2043D01*
X2207Y2050D02*X2252D01*
D02*X2260Y2043D01*
D02*Y2020D01*
D02*X2252Y2013D01*
X2237D02*X2252D01*
X2230Y2020D02*X2237Y2013D01*
X2230Y2035D02*Y2020D01*
X2260Y1993D02*X2222Y1956D01*
X2200D02*X2222D01*
X2200Y1993D02*Y1956D01*
X2252Y1936D02*X2260Y1929D01*
X2207Y1936D02*X2252D01*
X2207D02*X2200Y1929D01*
D02*Y1914D01*
D02*X2207Y1906D01*
D02*X2252D01*
X2260Y1914D02*X2252Y1906D01*
X2260Y1929D02*Y1914D01*
X2245Y1936D02*X2215Y1906D01*
X2252Y1887D02*X2260Y1879D01*
X2207Y1887D02*X2252D01*
X2207D02*X2200Y1879D01*
D02*Y1864D01*
D02*X2207Y1857D01*
D02*X2252D01*
X2260Y1864D02*X2252Y1857D01*
X2260Y1879D02*Y1864D01*
X2245Y1887D02*X2215Y1857D01*
X2252Y1837D02*X2260Y1830D01*
X2207Y1837D02*X2252D01*
X2207D02*X2200Y1830D01*
D02*Y1815D01*
D02*X2207Y1807D01*
D02*X2252D01*
X2260Y1815D02*X2252Y1807D01*
X2260Y1830D02*Y1815D01*
X2245Y1837D02*X2215Y1807D01*
X2200Y1788D02*Y1758D01*
D02*X2207Y1750D01*
D02*X2222D01*
X2230Y1758D02*X2222Y1750D01*
X2230Y1780D02*Y1758D01*
X2200Y1780D02*X2260D01*
X2230D02*X2260Y1750D01*
X2207Y1731D02*X2260D01*
X2207D02*X2200Y1723D01*
D02*Y1701D01*
D02*X2207Y1693D01*
D02*X2260D01*
X2230Y1731D02*Y1693D01*
X2200Y1674D02*X2260D01*
X2200D02*X2222Y1651D01*
D02*X2200Y1629D01*
D02*X2260D01*
X2200Y1582D02*X2245D01*
D02*X2260Y1567D01*
D02*X2245Y1552D01*
X2200D02*X2245D01*
X2260Y1525D02*Y1503D01*
X2252Y1533D02*X2260Y1525D01*
X2237Y1533D02*X2252D01*
X2237D02*X2230Y1525D01*
D02*Y1510D01*
D02*X2237Y1503D01*
X2245Y1533D02*Y1503D01*
D02*X2237D01*
Y1476D02*X2260D01*
X2237D02*X2230Y1468D01*
D02*Y1453D01*
Y1483D02*X2237Y1476D01*
X2260Y1426D02*Y1404D01*
D02*X2252Y1396D01*
X2245Y1404D02*X2252Y1396D01*
X2245Y1426D02*Y1404D01*
X2237Y1434D02*X2245Y1426D01*
X2237Y1434D02*X2230Y1426D01*
D02*Y1404D01*
D02*X2237Y1396D01*
X2252Y1434D02*X2260Y1426D01*
X2215Y1377D02*X2222D01*
X2237D02*X2260D01*
X2237Y1360D02*X2252D01*
X2237D02*X2230Y1353D01*
D02*Y1338D01*
D02*X2237Y1330D01*
D02*X2252D01*
X2260Y1338D02*X2252Y1330D01*
X2260Y1353D02*Y1338D01*
X2252Y1360D02*X2260Y1353D01*
X2237Y1303D02*X2260D01*
X2237D02*X2230Y1296D01*
D02*Y1288D01*
D02*X2237Y1281D01*
D02*X2260D01*
X2230Y1311D02*X2237Y1303D01*
X2260Y1227D02*Y1212D01*
X2200Y1219D02*X2260D01*
X2215Y1234D02*X2200Y1219D01*
X2260Y1192D02*Y1185D01*
Y1158D02*Y1143D01*
X2200Y1150D02*X2260D01*
X2215Y1165D02*X2200Y1150D01*
X2230Y1101D02*X2237Y1093D01*
X2230Y1116D02*Y1101D01*
X2237Y1123D02*X2230Y1116D01*
X2237Y1123D02*X2252D01*
D02*X2260Y1116D01*
X2230Y1093D02*X2252D01*
D02*X2260Y1086D01*
Y1116D02*Y1101D01*
D02*X2252Y1093D01*
G04 Text: LS *
G54D30*X2300Y1050D02*Y970D01*
D02*X2260D01*
X2194Y1050D02*X2184Y1040D01*
X2224Y1050D02*X2194D01*
X2234Y1040D02*X2224Y1050D01*
X2234Y1040D02*Y1020D01*
D02*X2224Y1010D01*
D02*X2194D01*
D02*X2184Y1000D01*
D02*Y980D01*
X2194Y970D02*X2184Y980D01*
X2224Y970D02*X2194D01*
X2234Y980D02*X2224Y970D01*
G54D12*X1600Y3350D02*X1350D01*
X500Y1600D02*X750D01*
X450Y1550D02*X500Y1600D01*
G54D13*X2300Y3450D02*Y3350D01*
G54D12*X250Y3400D02*X1350D01*
X450Y500D02*Y1550D01*
X350Y500D02*X550D01*
G54D13*X2250Y3350D02*Y3450D01*
G54D12*X300Y3500D02*X400D01*
X250Y3450D02*X300Y3500D01*
X250Y3000D02*Y3450D01*
Y2450D02*X650D01*
X200Y2500D02*X250Y2450D01*
X200Y2950D02*Y2500D01*
X250Y3000D02*X200Y2950D01*
X650Y2450D02*Y1600D01*
X700Y2500D02*X650Y2450D01*
X750Y2500D02*X700D01*
G54D13*X1350Y3450D02*Y3350D01*
X1300D02*Y3450D01*
G54D12*X600Y550D02*Y1300D01*
X2350Y3050D02*Y2300D01*
X1000Y3100D02*X2300D01*
X2050Y2700D02*X2350D01*
X1100Y3100D02*Y2950D01*
X2350Y3050D02*X2300Y3100D01*
X1000D02*Y3200D01*
X950Y3050D02*X1000Y3100D01*
X950Y2750D02*Y3050D01*
X900Y2700D02*X950Y2750D01*
X850Y2700D02*X900D01*
X2050Y1000D02*Y2000D01*
X2350Y2300D02*X2050Y2000D01*
X600Y550D02*X650Y500D01*
G54D15*X2250Y2400D03*
G54D17*Y2500D03*
G54D15*Y2700D03*
G54D17*Y2800D03*
G54D15*X1100Y2750D03*
G54D17*Y2950D03*
G54D15*X1000Y3500D03*
G54D17*X900D03*
X800D03*
X700D03*
X600D03*
X500D03*
X400D03*
Y3200D03*
X500D03*
X600D03*
X700D03*
X800D03*
X900D03*
X1000D03*
G54D15*X2050Y2500D03*
G54D17*X1950D03*
X1850D03*
X1750D03*
X1650D03*
X1550D03*
X1450D03*
X1350D03*
X1250D03*
X1150D03*
X1050D03*
X950D03*
X850D03*
X750D03*
Y1900D03*
X850D03*
X950D03*
X1050D03*
X1150D03*
X1250D03*
X1350D03*
X1450D03*
X1550D03*
X1650D03*
X1750D03*
X1850D03*
X1950D03*
X2050D03*
G54D15*Y3000D03*
G54D17*X1950D03*
X1850D03*
X1750D03*
X1650D03*
X1550D03*
X1450D03*
Y2700D03*
X1550D03*
X1650D03*
X1750D03*
X1850D03*
X1950D03*
X2050D03*
G54D15*X850Y3000D03*
G54D17*X750D03*
X650D03*
X550D03*
X450D03*
X350D03*
X250D03*
Y2700D03*
X350D03*
X450D03*
X550D03*
X650D03*
X750D03*
X850D03*
G54D15*X450Y1300D03*
G54D17*X600D03*
G54D15*X2050Y1600D03*
G54D17*X1950D03*
X1850D03*
X1750D03*
X1650D03*
X1550D03*
X1450D03*
X1350D03*
X1250D03*
X1150D03*
X1050D03*
X950D03*
X850D03*
X750D03*
Y1000D03*
X850D03*
X950D03*
X1050D03*
X1150D03*
X1250D03*
X1350D03*
X1450D03*
X1550D03*
X1650D03*
X1750D03*
X1850D03*
X1950D03*
X2050D03*
G54D22*X2270Y3400D03*
X1330D03*
G54D24*X2000Y3350D03*
G54D26*X1950Y3450D03*
X1900Y3350D03*
X1850Y3450D03*
X1800Y3350D03*
X1750Y3450D03*
X1700Y3350D03*
X1650Y3450D03*
X1600Y3350D03*
G54D13*X215Y480D02*Y170D01*
X370Y480D02*Y170D01*
X525Y480D02*Y170D01*
X680Y480D02*Y170D01*
X835Y480D02*Y170D01*
X990Y480D02*Y170D01*
X1145Y480D02*Y170D01*
X1300Y480D02*Y170D01*
X1455Y480D02*Y170D01*
X1610Y480D02*Y170D01*
X1765Y480D02*Y170D01*
X1920Y480D02*Y170D01*
X2075Y480D02*Y170D01*
X2230Y480D02*Y170D01*
X2385Y480D02*Y170D01*
G54D17*X950Y1100D03*
X400Y2050D03*
X1650Y1350D03*
X600Y1150D03*
X2050D03*
D02*
M02*
